<svg width="31" height="28" viewBox="0 0 31 28" fill="none" xmlns="http://www.w3.org/2000/svg">
<path d="M7.88645 7.02966C8.76258 7.22436 9.63871 7.37038 10.4662 7.56508C12.2671 7.95447 14.068 8.34386 15.9176 8.68458C16.161 8.73325 16.4044 8.73325 16.6478 8.68458C17.5726 8.44121 18.546 8.14916 19.4708 7.90579C20.7364 7.56508 21.4665 7.90579 21.7585 9.17132C21.9045 9.80408 22.1966 10.0474 22.8293 10.1935C24.9223 10.5829 26.9666 11.0696 29.0596 11.5077C29.2056 11.5563 29.3517 11.5563 29.5464 11.605C29.449 12.1891 29.303 12.7732 29.2056 13.3573C28.9136 14.7688 28.5729 16.229 28.2808 17.6406C28.0375 18.7114 27.356 19.1495 26.2852 18.9548C25.7011 18.8574 25.117 18.7114 24.3869 18.5654C24.5329 19.1495 24.7276 19.6849 24.825 20.2203C24.9223 20.561 24.971 20.9017 24.971 21.1938C24.8737 21.9239 24.3869 22.2646 23.7055 22.4593C20.5417 23.3354 17.3779 24.2116 14.2627 25.0877C11.3423 25.9152 8.37319 26.6939 5.45275 27.5214C4.38192 27.8134 3.65181 27.4241 3.35977 26.3046C2.28894 22.5567 1.26679 18.8088 0.195962 15.0609C-0.0960817 13.9414 0.29331 13.2113 1.46148 12.9192C3.16507 12.4325 4.86866 11.9457 6.57225 11.5077C6.86429 11.4103 7.01032 11.313 7.05899 11.0209C7.30236 9.90143 7.54573 8.73325 7.7891 7.61375C7.7891 7.37038 7.83777 7.22436 7.88645 7.02966ZM2.72701 19.3442C2.72701 19.4415 2.72701 19.5389 2.72701 19.5875C3.31109 21.7292 3.89518 23.8709 4.52794 26.0612C4.62529 26.4019 4.81999 26.4506 5.16071 26.3532C7.05899 25.8178 9.00595 25.2824 10.9042 24.747C14.9928 23.6275 19.0815 22.4593 23.1701 21.3398C23.8515 21.1451 23.8515 21.1451 23.6568 20.4637C23.2187 18.8574 22.7807 17.2512 22.2939 15.645C22.1479 15.1095 22.0019 14.6228 21.8559 14.0874C15.4309 15.8396 9.05462 17.5919 2.72701 19.3442ZM21.1258 11.459C20.9311 10.7289 20.7364 10.0961 20.5903 9.46336C20.493 9.02529 20.2983 8.92795 19.8602 9.07397C15.3336 10.3395 10.7582 11.605 6.23153 12.8705C4.72264 13.2599 3.26242 13.698 1.75353 14.0874C1.51016 14.1361 1.21812 14.2334 1.31546 14.5255C1.51016 15.2556 1.70485 15.9857 1.94822 16.7645C8.37319 15.0122 14.7008 13.2113 21.1258 11.459ZM25.117 12.1404C24.5816 12.0918 24.3869 12.2864 24.2896 12.6758C24.1435 13.3573 23.9975 13.99 23.8515 14.6715C23.7542 15.1095 23.9489 15.4016 24.3869 15.4989C25.0684 15.645 25.7498 15.791 26.4312 15.937C26.8206 16.0343 27.1127 15.8396 27.21 15.4503C27.356 14.7201 27.5507 14.0387 27.6481 13.3086C27.6967 12.9679 27.5507 12.6758 27.21 12.6272C26.4799 12.4325 25.7498 12.2864 25.117 12.1404Z" fill="black"/>
<path d="M30.3744 8.34398C23.1219 6.83508 15.9669 5.27752 8.66577 3.76863C8.81179 2.89249 8.90914 2.01636 9.15251 1.23758C9.34721 0.50747 10.126 0.215427 11.0021 0.410122C12.4137 0.702166 13.8739 1.04288 15.2854 1.33493C19.9581 2.30841 24.6795 3.33056 29.3522 4.30404C30.3744 4.49873 30.8124 5.18017 30.6664 6.20232C30.6177 6.88376 30.4717 7.56519 30.3744 8.34398Z" fill="black"/>
<path d="M5.69622 24.9373C5.5502 24.7913 5.25815 24.5966 5.20948 24.4019C4.96611 23.7205 4.82009 23.039 4.62539 22.3089C4.52805 21.8709 4.72274 21.5788 5.11213 21.4815C5.79357 21.2868 6.42633 21.0921 7.10776 20.9461C7.54583 20.8487 7.83787 20.9947 7.9839 21.4328C8.17859 22.1142 8.37329 22.747 8.51931 23.4284C8.66533 23.9152 8.51931 24.2072 7.9839 24.3532C7.25379 24.4993 6.52368 24.694 5.69622 24.9373Z" fill="#008D1E"/>
</svg>
