<svg width="21" height="21" viewBox="0 0 21 21" fill="none" xmlns="http://www.w3.org/2000/svg">
<path d="M9.20091 11.1693C9.20091 11.0566 9.20091 10.944 9.20091 10.8319C9.20091 7.7929 9.20154 4.75387 9.20091 1.71484C9.20091 1.21622 9.40821 0.830273 9.84084 0.58252C10.2529 0.346594 10.6787 0.355309 11.0833 0.59995C11.5098 0.857663 11.6946 1.25357 11.694 1.7497C11.6909 4.03177 11.6928 6.31385 11.6928 8.5953C11.6928 9.45372 11.6928 10.3128 11.6928 11.2409C11.8185 11.1264 11.9007 11.0566 11.9766 10.9807C12.6228 10.3364 13.2664 9.68902 13.9138 9.04598C14.4579 8.50566 15.2167 8.47453 15.7216 8.96568C16.2457 9.47613 16.237 10.2368 15.6836 10.7927C14.25 12.2338 12.8126 13.6718 11.3716 15.1054C10.8094 15.6644 10.0842 15.6631 9.5215 15.1035C8.08042 13.6699 6.64308 12.2319 5.20947 10.7908C4.66416 10.243 4.64798 9.50041 5.15282 8.98622C5.65642 8.47453 6.4277 8.49756 6.98234 9.04723C7.62289 9.68217 8.26095 10.3209 8.89527 10.9626C8.97433 11.0423 9.02537 11.1494 9.08949 11.2434C9.12622 11.2185 9.16356 11.1936 9.20091 11.1693Z" fill="black"/>
<path d="M10.4114 20.3388C7.52865 20.3388 4.64525 20.3394 1.76247 20.3382C1.22214 20.3376 0.825609 20.0879 0.599643 19.6005C0.382392 19.133 0.458337 18.6867 0.78328 18.292C1.03539 17.9858 1.37154 17.8463 1.76869 17.847C2.5879 17.8488 3.4071 17.847 4.22631 17.847C9.1627 17.847 14.0991 17.8463 19.0349 17.8476C19.8198 17.8476 20.377 18.3337 20.4037 19.0341C20.4311 19.7387 19.8927 20.3245 19.1837 20.3351C18.3439 20.3475 17.5035 20.3388 16.6638 20.3388C14.5803 20.3388 12.4955 20.3388 10.4114 20.3388Z" fill="black"/>
</svg>
