<svg width="16" height="30" viewBox="0 0 16 30" fill="none" xmlns="http://www.w3.org/2000/svg">
<path d="M15.3655 9.65569C15.097 9.35939 14.7431 9.1656 14.3592 9.10466C13.9754 9.04372 13.5832 9.11907 13.2442 9.31892C12.89 9.51565 12.613 9.83855 12.4624 10.2305C12.3117 10.6224 12.297 11.058 12.4209 11.4603C12.4878 11.6032 12.5014 11.7674 12.4591 11.9204C12.4168 12.0734 12.3217 12.204 12.1926 12.2863C11.9562 12.4735 11.7718 12.7245 11.6587 13.0129C11.5456 13.3013 11.5079 13.6166 11.5496 13.9257C11.5916 15.832 11.5496 17.7954 11.5496 19.7271C11.5496 20.2799 11.2551 20.1782 10.9486 20.1909C10.6421 20.2036 10.4138 20.2418 10.4138 19.7398C10.4138 16.2768 10.4138 12.8137 10.4138 9.35705C10.4138 8.76611 10.9186 8.58183 11.183 8.20694C11.4474 7.83204 11.6037 8.20694 11.7839 8.20694C12.1519 8.29884 12.5379 8.26607 12.8873 8.11327C13.2367 7.96047 13.5319 7.69537 13.731 7.35548C13.9284 7.00749 14.0134 6.60099 13.9729 6.19743C13.9324 5.79388 13.7688 5.41523 13.5067 5.11874C13.2447 4.82226 12.8984 4.62407 12.5204 4.55415C12.1423 4.48423 11.753 4.54638 11.4113 4.7312C11.0605 4.912 10.7803 5.21655 10.619 5.59237C10.4578 5.96819 10.4256 6.39172 10.528 6.78996C10.6068 6.98167 10.6168 7.19724 10.5559 7.39615C10.495 7.59506 10.3676 7.76363 10.1975 7.87017C9.9401 8.07544 9.73772 8.34803 9.61023 8.6611C9.48273 8.97417 9.43452 9.31694 9.47032 9.65569C9.51839 12.9789 9.47032 16.2958 9.47032 19.6191C9.47032 19.7906 9.55445 20.0766 9.38619 20.121C9.0853 20.191 8.77364 20.191 8.47276 20.121C8.18431 20.0575 8.32252 19.7461 8.32252 19.5492C8.32252 14.6946 8.32252 9.84632 8.32252 5.00443C8.29625 4.8395 8.32428 4.67003 8.40193 4.52432C8.47958 4.37861 8.60216 4.26547 8.74919 4.2038C9.08683 4.02119 9.35678 3.72409 9.51585 3.36006C9.67491 2.99603 9.71389 2.58611 9.62656 2.19588C9.54003 1.78563 9.3252 1.41822 9.01677 1.15305C8.70834 0.887876 8.32435 0.740436 7.92687 0.734558C7.52939 0.72868 7.14165 0.864707 6.82633 1.12066C6.51101 1.3766 6.28653 1.73752 6.18919 2.14505C6.08854 2.54201 6.11951 2.96344 6.27696 3.33919C6.43441 3.71493 6.70884 4.02232 7.05454 4.21016C7.22288 4.25682 7.36812 4.36948 7.46076 4.52526C7.5534 4.68104 7.58649 4.86827 7.55332 5.04891C7.55332 7.46985 7.55332 9.8908 7.55332 12.3181C7.55332 14.7454 7.55332 17.1663 7.55332 19.5873C7.55332 20.0639 7.44515 20.2227 6.95238 20.2227C6.45961 20.2227 6.35144 20.121 6.35144 19.5873C6.35144 16.2895 6.35144 12.9916 6.35144 9.68746C6.40326 9.35557 6.37539 9.01523 6.27038 8.6977C6.16538 8.38016 5.98662 8.09561 5.7505 7.87017C5.58917 7.76788 5.46851 7.60706 5.41101 7.41767C5.35352 7.22828 5.36312 7.02325 5.43802 6.84079C5.54347 6.45488 5.52044 6.04239 5.37277 5.67228C5.22511 5.30217 4.96176 4.99688 4.62675 4.80745C4.29098 4.60931 3.90325 4.53242 3.5224 4.58842C3.14155 4.64443 2.78837 4.83028 2.51648 5.11777C2.24459 5.40527 2.06882 5.77871 2.01585 6.18141C1.96288 6.58411 2.03561 6.99409 2.22299 7.34912C2.40554 7.71255 2.69933 7.99972 3.0563 8.16363C3.41328 8.32754 3.81229 8.35849 4.18806 8.25142C4.33634 8.17111 4.50721 8.15068 4.6687 8.19395C4.83019 8.23722 4.97123 8.34123 5.06543 8.48652C5.28778 8.77882 5.59426 8.96309 5.59426 9.43965C5.57022 12.8582 5.57022 16.2789 5.59426 19.7017C5.59426 20.1401 5.47407 20.2545 5.07745 20.2354C4.68083 20.2163 4.47651 20.2354 4.47651 19.7017C4.50656 17.7064 4.47651 15.7112 4.47651 13.716C4.49936 13.4867 4.46668 13.255 4.38153 13.0427C4.29638 12.8303 4.16156 12.6444 3.98975 12.5024C3.80294 12.3864 3.66223 12.2027 3.59372 11.9854C3.52521 11.768 3.53354 11.5318 3.61717 11.3205C3.71417 10.9209 3.67228 10.4978 3.49913 10.1281C3.32597 9.75846 3.03307 9.4668 2.6737 9.30621C2.34265 9.13605 1.96926 9.08068 1.60672 9.148C1.24417 9.21531 0.910961 9.40188 0.654543 9.68111C0.396012 9.9718 0.230269 10.3409 0.180676 10.7365C0.131082 11.1321 0.200139 11.5341 0.378111 11.886C0.560637 12.2346 0.844436 12.5118 1.18752 12.6766C1.5306 12.8414 1.91473 12.885 2.28309 12.801C2.43603 12.7432 2.60032 12.7274 2.76063 12.7549C2.92094 12.7824 3.07205 12.8524 3.19986 12.9583C3.32767 13.0643 3.42801 13.2027 3.49153 13.3608C3.55504 13.5188 3.57966 13.6913 3.56309 13.8622C3.56309 15.6604 3.56309 17.4523 3.56309 19.2442C3.56309 20.21 3.56309 20.21 2.61961 20.2227C1.88046 20.2227 1.80834 20.3053 1.80834 21.1123V29.055C1.80834 29.1948 1.80834 29.341 1.80834 29.4808C1.81061 29.537 1.82355 29.5922 1.84641 29.643C1.86926 29.6938 1.90155 29.7393 1.94137 29.7766C1.98118 29.814 2.0277 29.8425 2.07814 29.8604C2.12859 29.8784 2.18194 29.8854 2.23501 29.8811C2.33348 29.894 2.43286 29.8661 2.51237 29.8034C2.59188 29.7406 2.64538 29.6478 2.66168 29.5443C2.69379 29.3343 2.70586 29.1214 2.69773 28.9089C2.69773 26.4816 2.69773 24.0606 2.69773 21.6333C2.69773 21.2394 2.79389 21.1186 3.17849 21.125C6.38349 21.125 9.59851 21.125 12.8236 21.125C13.2202 21.125 13.3043 21.2648 13.2983 21.646C13.2983 23.6031 13.2983 25.5602 13.2983 27.5173C13.2983 28.1527 13.2983 28.7373 13.2983 29.3473C13.2983 29.6396 13.4425 29.8684 13.761 29.8557C14.0795 29.8429 14.1937 29.6396 14.1877 29.3219C14.1877 29.2202 14.1877 29.1186 14.1877 29.0169V21.6778C14.1877 20.2799 14.1877 20.2735 12.8416 20.1973C12.5892 20.1973 12.457 20.1401 12.457 19.8224C12.457 17.77 12.457 15.7112 12.457 13.6525C12.4697 13.5133 12.5085 13.3782 12.5713 13.2552C12.6341 13.1321 12.7195 13.0236 12.8225 12.936C12.9255 12.8484 13.0441 12.7834 13.1712 12.745C13.2983 12.7065 13.4314 12.6953 13.5627 12.7121C13.9354 12.8405 14.3381 12.8332 14.7065 12.6914C15.0749 12.5497 15.3878 12.2815 15.5952 11.9298C15.8027 11.5781 15.8928 11.1631 15.8512 10.7509C15.8095 10.3387 15.6386 9.95315 15.3655 9.65569ZM12.3068 5.48735C12.54 5.49564 12.7607 5.60121 12.9206 5.78099C13.0805 5.96077 13.1666 6.20014 13.1601 6.44683C13.1586 6.56836 13.134 6.68833 13.0879 6.79965C13.0418 6.91097 12.975 7.01137 12.8915 7.09491C12.808 7.17845 12.7095 7.24343 12.6018 7.286C12.4942 7.32858 12.3795 7.34788 12.2647 7.34277C12.0325 7.33453 11.8124 7.23115 11.6509 7.05448C11.4894 6.87781 11.3992 6.64169 11.3993 6.39599C11.4147 6.14822 11.5191 5.91604 11.6912 5.74708C11.8633 5.57813 12.09 5.48519 12.3248 5.48735H12.3068ZM3.72534 7.34277C3.61025 7.34621 3.4957 7.32499 3.38857 7.28039C3.28144 7.23579 3.18396 7.16873 3.10199 7.08324C3.02002 6.99776 2.95526 6.89561 2.9116 6.78297C2.86795 6.67032 2.8463 6.54949 2.84797 6.42777C2.84638 6.30624 2.86755 6.18558 2.91025 6.07274C2.95295 5.9599 3.01635 5.85711 3.09678 5.77029C3.17722 5.68347 3.2731 5.61433 3.37892 5.56686C3.48473 5.51939 3.59838 5.49453 3.71332 5.4937C3.94565 5.49526 4.16831 5.59225 4.33426 5.76417C4.50022 5.93609 4.59648 6.16948 4.60271 6.41506C4.60114 6.66059 4.50819 6.89559 4.344 7.06921C4.1798 7.24283 3.95755 7.34111 3.72534 7.34277ZM1.92252 11.8606C1.69086 11.8623 1.46796 11.767 1.30247 11.5956C1.13697 11.4242 1.04231 11.1905 1.03914 10.9456C1.04953 10.7003 1.14675 10.4681 1.3115 10.2951C1.47625 10.1221 1.69649 10.0208 1.92853 10.0115C2.16078 10.0181 2.38151 10.1199 2.54411 10.2954C2.7067 10.4709 2.79842 10.7063 2.79989 10.9519C2.80264 11.0753 2.78107 11.198 2.73656 11.3121C2.69205 11.4262 2.62558 11.5292 2.54136 11.6147C2.45715 11.7001 2.35704 11.7661 2.24739 11.8085C2.13775 11.8508 2.02098 11.8686 1.90449 11.8606H1.92252ZM7.13867 2.62796C7.13868 2.44601 7.18963 2.26813 7.28512 2.11675C7.3806 1.96537 7.51634 1.84728 7.67521 1.77737C7.83408 1.70745 8.00897 1.68884 8.17783 1.72387C8.34669 1.75891 8.50196 1.84603 8.62406 1.97425C8.74616 2.10247 8.82962 2.26605 8.86391 2.44435C8.89821 2.62266 8.88181 2.80771 8.81678 2.97617C8.75175 3.14463 8.641 3.28897 8.4985 3.39097C8.356 3.49297 8.18812 3.54807 8.01604 3.54932C7.89939 3.55361 7.78313 3.5329 7.67425 3.48844C7.56536 3.44398 7.46611 3.37669 7.38246 3.29062C7.29881 3.20454 7.23249 3.10147 7.1875 2.98759C7.14251 2.87371 7.11976 2.75138 7.12065 2.62796H7.13867ZM15.011 11.0218C15.002 11.1439 14.9699 11.2629 14.9167 11.3716C14.8634 11.4803 14.7901 11.5767 14.701 11.6549C14.6119 11.7331 14.5088 11.7916 14.398 11.8269C14.2871 11.8623 14.1706 11.8737 14.0555 11.8606C13.9406 11.8527 13.8283 11.8203 13.7255 11.7654C13.6228 11.7104 13.5316 11.6341 13.4575 11.5408C13.3833 11.4476 13.3278 11.3395 13.2943 11.223C13.2607 11.1065 13.2498 10.9841 13.2622 10.863C13.2721 10.7416 13.3045 10.6234 13.3575 10.5152C13.4106 10.4071 13.4833 10.311 13.5715 10.2325C13.7495 10.074 13.9798 9.99682 14.2117 10.0179C14.3265 10.0283 14.4383 10.0626 14.5406 10.1187C14.6429 10.1747 14.7338 10.2516 14.808 10.3448C14.8822 10.4381 14.9383 10.5458 14.9732 10.662C15.008 10.7782 15.0208 10.9004 15.011 11.0218Z" fill="black"/>
</svg>
