<svg width="23" height="24" viewBox="0 0 23 24" fill="none" xmlns="http://www.w3.org/2000/svg">
<path d="M10.7357 14.4811C10.0758 14.4708 9.19618 14.1206 8.45728 13.4233C8.10831 13.0939 8.06909 12.6434 8.35461 12.3181C8.65282 11.9778 9.10677 11.9634 9.48343 12.2812C10.6048 13.2277 11.8345 13.1764 12.8757 12.1364C14.4123 10.6015 15.9506 9.06835 17.4815 7.52769C18.2948 6.70919 18.4263 5.51692 17.8241 4.59806C17.0172 3.36715 15.3242 3.19411 14.2473 4.24621C13.4225 5.05201 12.6144 5.87512 11.7987 6.69016C11.7307 6.75822 11.6644 6.82859 11.5888 6.88743C11.2698 7.13603 10.8441 7.11065 10.5655 6.83148C10.2904 6.55576 10.269 6.12488 10.5165 5.80648C10.5517 5.76091 10.5926 5.71996 10.633 5.67901C11.4752 4.83629 12.3069 3.98203 13.1629 3.15315C14.8091 1.55884 17.2727 1.64018 18.7834 3.32389C20.061 4.74803 20.0875 7.0126 18.758 8.40098C17.1031 10.1285 15.3859 11.7961 13.6901 13.4838C13.5286 13.6448 13.3342 13.7774 13.1404 13.9009C12.5157 14.2983 11.8305 14.4892 10.7357 14.4811Z" fill="black"/>
<path d="M4.98925 20.4648C3.49819 20.3753 2.27362 19.6514 1.61605 18.1529C0.964834 16.6688 1.17537 15.2319 2.28169 14.0529C3.78083 12.4557 5.33822 10.9093 6.92848 9.40209C8.38032 8.02582 10.657 8.09388 12.1129 9.46727C12.4693 9.80355 12.5143 10.2685 12.2219 10.5955C11.9237 10.9289 11.4674 10.9364 11.089 10.6145C10.0006 9.68819 8.74602 9.73145 7.73833 10.7368C6.32918 12.1419 4.91772 13.5448 3.51895 14.9608C2.468 16.025 2.62605 17.703 3.83678 18.5226C4.75045 19.1416 5.9531 19.025 6.77102 18.2238C7.47126 17.5374 8.16055 16.8401 8.85215 16.1444C9.06845 15.927 9.3136 15.7949 9.62681 15.8589C10.2088 15.9783 10.4401 16.6688 10.0392 17.1244C9.7664 17.4342 9.46184 17.7157 9.16882 18.0075C8.67795 18.4955 8.19805 18.9956 7.69045 19.4657C6.96886 20.1337 6.09615 20.4417 4.98925 20.4648Z" fill="black"/>
<path d="M6.66348 6.50501C6.64675 6.92551 6.52273 7.15277 6.26548 7.29351C6.01052 7.4331 5.75096 7.42445 5.49774 7.27967C5.46486 7.26064 5.43083 7.23987 5.4043 7.21334C4.60311 6.41388 3.79672 5.62018 3.00707 4.81034C2.76423 4.56116 2.76192 4.18277 2.94362 3.90302C3.12762 3.61923 3.47256 3.47964 3.79672 3.58923C3.93631 3.63653 4.07417 3.72651 4.17973 3.83034C4.91804 4.55654 5.65463 5.28506 6.37507 6.02914C6.52562 6.18373 6.60579 6.40696 6.66348 6.50501Z" fill="black"/>
<path d="M15.1595 15.058C15.3325 15.1503 15.5379 15.2085 15.6729 15.34C16.4446 16.0899 17.2049 16.8519 17.9582 17.6202C18.2754 17.9438 18.2708 18.4093 17.979 18.7092C17.6796 19.0166 17.202 19.023 16.8692 18.6959C16.1084 17.949 15.3574 17.191 14.6052 16.4348C14.3566 16.1851 14.2937 15.8869 14.4252 15.5598C14.5383 15.2772 14.8244 15.1024 15.1595 15.058Z" fill="black"/>
<path d="M14.357 18.5688C14.357 18.9247 14.3651 19.2806 14.3553 19.6359C14.3414 20.1539 14.0236 20.4908 13.5714 20.4821C13.1197 20.4735 12.8198 20.1285 12.8181 19.6059C12.8152 18.9045 12.8146 18.2026 12.8181 17.5012C12.8204 16.9861 13.1318 16.6434 13.5869 16.6434C14.0328 16.6434 14.3397 16.967 14.3547 17.474C14.3656 17.838 14.357 18.2037 14.357 18.5688Z" fill="black"/>
<path d="M8.20087 3.9483C8.20087 4.31342 8.20606 4.67854 8.19971 5.04366C8.19106 5.5178 7.87728 5.84659 7.43948 5.85178C7.01091 5.85639 6.68155 5.5553 6.67001 5.08808C6.65098 4.31977 6.6504 3.5503 6.67001 2.78199C6.68212 2.30842 7.0334 1.99521 7.46774 2.01425C7.88535 2.03271 8.19164 2.36611 8.19971 2.82352C8.20606 3.19902 8.20087 3.57395 8.20087 3.9483Z" fill="black"/>
<path d="M3.17503 8.92224C2.8099 8.92224 2.44421 8.928 2.07966 8.9205C1.62513 8.91128 1.29347 8.59749 1.2802 8.17873C1.26693 7.7565 1.57264 7.40638 2.0289 7.39369C2.80644 7.37177 3.58572 7.37234 4.36383 7.39253C4.82759 7.40465 5.12753 7.74208 5.11715 8.17123C5.10619 8.6096 4.77856 8.91416 4.29981 8.92166C3.92488 8.92685 3.54995 8.92281 3.17503 8.92224Z" fill="black"/>
<path d="M17.8081 13.5574C18.1831 13.5574 18.558 13.5517 18.9323 13.5586C19.388 13.5672 19.7208 13.877 19.737 14.2958C19.7531 14.7191 19.4492 15.0721 18.9929 15.0848C18.2056 15.1067 17.4165 15.1067 16.6297 15.0837C16.1827 15.0704 15.8925 14.7318 15.9 14.3131C15.9075 13.8851 16.2283 13.5695 16.6839 13.5592C17.0583 13.5505 17.4332 13.5574 17.8081 13.5574Z" fill="black"/>
<path d="M0.862305 0.859985L22.485 23.2549" stroke="#008D1E" stroke-width="1.12115"/>
<path d="M22.485 0.859985L0.862305 23.2549" stroke="#008D1E" stroke-width="1.12115"/>
</svg>
