<svg width="21" height="21" viewBox="0 0 21 21" fill="none" xmlns="http://www.w3.org/2000/svg">
<path d="M11.5195 9.2777C11.5195 9.39037 11.5195 9.50305 11.5195 9.6151C11.5195 12.6541 11.5189 15.6932 11.5195 18.7322C11.5195 19.2308 11.3123 19.6167 10.8796 19.8645C10.4675 20.1004 10.0417 20.0917 9.63711 19.8471C9.2107 19.5894 9.02582 19.1935 9.02645 18.6973C9.02956 16.4152 9.02769 14.1332 9.02769 11.8517C9.02769 10.9933 9.02769 10.1343 9.02769 9.20612C8.90195 9.32066 8.81978 9.39037 8.74383 9.46632C8.09768 10.1106 7.45402 10.758 6.80662 11.401C6.26256 11.9414 5.50373 11.9725 4.99889 11.4813C4.47475 10.9709 4.48346 10.2102 5.03686 9.65431C6.47047 8.21324 7.90782 6.77527 9.3489 5.34166C9.91101 4.78266 10.6362 4.7839 11.199 5.34352C12.64 6.77713 14.0774 8.2151 15.511 9.65618C16.0563 10.204 16.0725 10.9466 15.5676 11.4608C15.064 11.9725 14.2928 11.9495 13.7381 11.3998C13.0976 10.7648 12.4595 10.1262 11.8252 9.48437C11.7461 9.40469 11.6951 9.29762 11.631 9.20363C11.5942 9.22853 11.5569 9.25343 11.5195 9.2777Z" fill="black"/>
<path d="M10.3107 0.10821C13.1935 0.10821 16.0769 0.107588 18.9597 0.108833C19.5 0.109455 19.8966 0.359078 20.1225 0.846493C20.3398 1.31399 20.2638 1.76032 19.9389 2.15498C19.6868 2.46125 19.3506 2.60069 18.9535 2.60006C18.1343 2.5982 17.3151 2.60006 16.4959 2.60006C11.5595 2.60007 6.62307 2.60069 1.68729 2.59944C0.902325 2.59944 0.345192 2.11327 0.318424 1.41297C0.291035 0.708299 0.829492 0.122528 1.53851 0.111946C2.37826 0.0994958 3.21863 0.108211 4.05838 0.108211C6.14188 0.108211 8.22662 0.10821 10.3107 0.10821Z" fill="black"/>
</svg>
