<svg width="26" height="21" viewBox="0 0 26 21" fill="none" xmlns="http://www.w3.org/2000/svg">
<path d="M13.4025 0.210083C17.7365 0.287719 21.8432 1.94768 25.2416 5.30763C25.7818 5.84147 25.8707 6.41694 25.5225 6.96199C25.0735 7.66391 24.1963 7.76956 23.5552 7.2053C23.0053 6.72108 22.4747 6.20964 21.8896 5.77184C16.0197 1.37222 7.85517 1.87165 2.55193 6.94118C2.45588 7.03322 2.36224 7.12926 2.26219 7.2173C1.70354 7.70953 0.965597 7.68872 0.470969 7.16768C-0.0212573 6.64904 -0.0236589 5.94312 0.494179 5.41087C1.49464 4.384 2.61836 3.506 3.84612 2.76646C6.65221 1.07528 9.69761 0.229292 13.4025 0.210083Z" fill="black"/>
<path d="M12.7904 5.32654C16.3281 5.38176 19.1854 6.5559 21.5473 8.90658C22.2036 9.55969 22.1588 10.4049 21.4632 10.9083C20.955 11.2765 20.3827 11.2172 19.8505 10.7987C19.1718 10.2648 18.5123 9.68454 17.7671 9.26115C14.0038 7.12416 9.38808 7.69643 6.23382 10.6938C5.33261 11.5502 4.20489 11.0452 3.99279 10.1648C3.88234 9.70615 4.0144 9.31557 4.33055 8.99222C6.23943 7.04013 8.54849 5.86038 11.2489 5.4634C11.8276 5.37776 12.4159 5.35855 12.7904 5.32654Z" fill="black"/>
<path d="M17.1437 14.9976C16.7179 15.0112 16.421 14.7743 16.1256 14.511C14.8042 13.3344 13.2883 12.9382 11.6092 13.5553C11.0521 13.7602 10.5391 14.1452 10.0789 14.5334C9.42895 15.0808 8.73103 15.1568 8.19239 14.6294C7.66094 14.1084 7.66094 13.2728 8.19158 12.6837C10.8224 9.75997 15.4469 9.76797 18.0409 12.7013C18.4403 13.1527 18.5476 13.665 18.3002 14.2212C18.0809 14.7142 17.6864 14.9736 17.1437 14.9976Z" fill="black"/>
<path d="M13.037 20.3821C11.6996 20.3805 10.6127 19.304 10.6055 17.973C10.5991 16.6236 11.6924 15.5327 13.0498 15.5359C14.3888 15.5383 15.4701 16.6116 15.4781 17.9466C15.4861 19.2984 14.3992 20.3837 13.037 20.3821Z" fill="black"/>
</svg>
